<?xml version="1.0" encoding="UTF-8"?>
<svg id="Layer_2" data-name="Layer 2" xmlns="http://www.w3.org/2000/svg" viewBox="0 0 86.92 91.66">
  <defs>
    <linearGradient id="grad" x1="0%" y1="0%" x2="100%" y2="100%">
      <stop offset="0%" stop-color="#e8f1f5" />
      <stop offset="45%" stop-color="#5eead4" />
      <stop offset="100%" stop-color="#1e3a8a" />
    </linearGradient>
    <style>
      .cls-1 {
        fill: url(#grad);
        stroke-width: 0px;
      }
    </style>
  </defs>
  <g id="Layer_1-2" data-name="Layer 1">
    <path class="cls-1" d="M45.93,91.66c-3.6-.59-.8-5.29-1.47-7.77-4.52-3.61-6.29,3.65-10.07,4.86-1.29.6-2.01-.05-2.14-1.29-.16-2.81,3.85-4.61,4.7-6.88.9-1.31-.14-1.57-.84-2.39-.78-.52-1.7.67-2.36,1.07-1.66.87-5.23,5.5-6.25,1.98,0-2.54,1.89-2.64,2.66-4.18,1.2-1.25,1.92-3.08,3.45-3.73.05-.81.03-1.65,0-2.4-4.1-5.2-4.17-3.65-10-2.3-5.67,1.49-12.07,2.48-17.62,4.79-1.19.47-2.59.07-3.91.45-.5.13-1.53.18-1.74-.2-.7-.66-.2-2.36.54-2.35,7.93-3.08,16.62-5.41,23.94-9.59-.07-.39.02-.88-.03-1.29-2.89-.27-4.46-.42-7.17-.38-1.56.33-4.05.85-5.51-.1-.73-1.48,1.13-3.1,2.35-2.92,4.12-1.43,8.18-1.83,12.54-2.4.65-.52,1.53-.21,2.03-.4.29-.27.62-.3.87-.33-1.26-3.73,1.28-2.94,4.03-2.97,1.65,0,1.9-2.04,2.76-3.08-8.15-4.02-8.45-5.78,1.08-6.13.89.02,3.61,1.21,2.77-.57-.18-.36-.38-1.26-.69-1.19-1.67-.55-.72-3.18,1.22-2.61,1.44-.31,2.95.63,4.47.65.44-.42.88-.34,1.11-.25.46.27,1.2-.87,1.79-1.05.65-4.34-.32-8.74.4-12.92,2.93-6.23,4.32,7.24,5.16,9.09.36-.27.69-.69,1-.95.02-6.05,1.98-31.42,5.15-31.93,2.59-.1,2.16,9.68,1.28,11.25.3,3.66-.83,7.25-.2,10.79,1.52,3.84-.23,8.2.87,12.16,1.04,1.57,2.7,2.64,3,4.51.81-1.45-.16-2.78,1.1-4.13.04-3.16,1.64-5.73,1.37-8.83-.1-1.48.35-2.96.64-4.35.32-1.55.87-2.73,2.3-2.6,1.22.11,1.74,5.13,1.14,6.55-.88,1.07-.14,3.25-.39,4.66.16,2.96-.53,5.61-.32,8.52.53,2.2-1.77,2.97.18,5.08.77,1.7,4.28-1.67,5.16.6.66,2.01-1.09,2.64-2.34,3.7-.89.84.64,1.63,1.52,1.34.88-1.79,3.85.92,2.05,2.23-.41.61-1.44,1.04-1.48,1.78.94,1.72,2.5.79,4,.41.9-.62,1.6-.31,2.5-.37.9.21,1.6-.47,2.33-.35,1.88-.16,2.63,1.52,1.65,3.13-1.13,1.44-2.97,1.77-4.71,1.94-1.52,1.23-5.16,1.94-3.84,4.54,6.03,2.71,3.72,4.57-1.64,3.91-.27,2.31,6.63,5.28,1.71,6.5-1.64.33-3.6-2.67-4.88-.54-1.02,1-1.1,2.4-2.47,3.17-.58.23-1.09.82-1.58,1.23-.58.56-1.08,1.22-.82,1.65,1.71,1.44,2.45,3.92,3.78,5.8,1.16,2.86-2.79,1.92-3.89.5-1.53-1.62-3.6-1.64-5.2-2.96-1.22-.82-2.85-.17-4.24-.38-1.34,1.17-2.88.7-3.91.39-.75-.12-1.87.08-2.39-.44-.13.12-.34.23-.57.32-.4.78-1.59,1.4-1.61,2.18-.05,1.25-1.36,1.5-1.37,2.47-.3,2.06-.99,4.6-2.94,5.29ZM41.82,81.11c5.98.75,4.17,4.29,3.98,8.7,1.62-1.85.91-4.52,2.78-6-.02-1.55,1.37-2.07,1.91-3.13.07-.42.41-.73.84-.56,1.54-1.2,5.02,1.31,6.34.01.87-.67,1.53-.23,2.36-.35,1.06.09,2.65-.3,3.47.4,2.12,1.54,4.42,1.81,6.42,3.87-2.31-4.67-6.13-6.3.12-10,2.16-3.75,3.33-5.35,7.69-2.76-3.31-2.66-5.38-7.36.9-6.45-.79-.56-2.31-.99-2.32-1.84-1.6-3.34,2.33-5.05,4.55-6.38,1.31-.72,4.03-.08,4.33-1.99-.23.03-.41.02-.54,0-1.14.63-2.58.26-3.62.36-.02.21-.24.33-.44.33-1.23,0-2.2.97-3.62.68-2.2-.6-3.89-3.49-1.26-5.09-2.17.66-4.95-1.86-3.27-3.86.28-.81,2.14-1.11,1.99-1.96-1.62.78-3.37,1.37-4.66-.46-.74-.97-1.98-2.6-.61-4.46.2-.54.03-1.19.09-1.77-.2-2.81.47-5.61.32-8.36.28-1.69.37-3.64.71-5.71.18-1.12.28-3.74-.16-3.83-.71-.14-.74,1.12-.88,1.78-.49,2.32-.39,5.64-.93,7.97-.34,1.47-.53,2.91-.45,4.35.02.21.07.88-.57,1.23-.27.27.01,1.57-.24,2.19-.76,1.16-.04,3.08-1.28,3.91-1.17.65-2.51-.59-2.31-1.83.47-2.43-2.53-3.64-3.03-5.57-.88-3.68.07-7.76-.5-11.42-1.07-1.82-.34-3.7-.37-6.97.14-4.86,1.73-12.82.51-12.87-.69-.03-3.67,22.82-3.4,28.51-.11,1.46-1.89,3.26-3.42,2.73-2.26-2.38-1.58-6.71-3-9.73.06,3.98.23,8.24-.13,12.19-.49,1.06-2.05,2.66-3.7,2.46-1.84.99-3.15-.72-5.05-.41,4.09,7.33-5.36,3.43-8.35,4.88,2.36,1.83,6.12,1.62,5.03,4.93-1.66,3.33-2.7,4.14-6.66,3.77.57,1.2-.09,3.05-1.37,2.98-3.63,1.48-8.56.88-12.16,2.26-.52.47-3.81.53-2.14.92,3.08-.67,7.13-.5,10.17.32.86.9.94,3.16-.07,4.03-6.3,3.99-14.35,5.49-21.17,8.81.18,0,.36,0,.54.01,4.34-2.17,8.54-2.32,13.14-3.75,2.17-.8,4.67-1.08,5.81-1.43,2.65-.47,6.32-2.62,8.25.32.78,1.35,2.35,2.05,2.87,3.56,0,1.25.49,3.96-1.13,4.28-1.66,1.84-3.36,3.96-4.95,5.87.02,0,.05,0,.06,0,2-1.57,5.27-5.74,8-3.81,1.53,1.15,2.33,2.96,1.17,4.42-.72,1.96-3.67,3.63-4.49,5.71,3.21-1.49,4.17-5.66,7.9-6ZM44.48,83.68h0s0,0,0,0ZM57.02,78.15c-2.24-.82-5.27.24-6.96-1.98-.67-.84-1.43-.47-1.58-1.6-.23-.56-.61-1.46.19-2.47.52-.57-.03-.78-.24-1.04-1.16,1.58-5.09,3-6.28.92-1.29-2.08-3.39-4.61-3.09-7.18-2.09-.21-1.22-1.62-1.03-3.01-1.78.36-2.91-1.79-3.09-3.55-.12-2.52,2.38-2.64,2.74-4.44.1-.71.53-1.11.85-1.4,3.05-6.14,10.78-8.08,17.13-8.62,10.9.89,19.97,12.12,15.2,22.83-1.01,6.23-7.88,10.59-13.84,11.54ZM54.88,76.02c5.63,1.23,11.37-3.25,14.05-8-.2-2.21,1.75-3.93,1.35-5.99.77-6.17-2.98-12.44-8.74-14.84-6.31-3.08-13.34-1.07-18.95,2.49-1.38,1.25-2.03,3.14-3.24,4.34-.08,2.02-2.51,2.52-2.72,4.1.37,3.88,4.01.06,2.89,5.01,1.48,0,1.11,1.9,1.24,2.74.66,1.85,1.73,3.7,2.94,5.39,2.22.5,2.91-1.52,4.82-1.93,1.66.28,2.76,2.36,1.47,3.79-.23.19-.06.54.11.93,1.53,1.23,2.69,2.43,4.79,1.96Z"/>
  </g>
</svg>